<?xml version="1.0" encoding="utf-8"?>
<svg xmlns="http://www.w3.org/2000/svg" xmlns:xlink="http://www.w3.org/1999/xlink" width="600" height="400" viewBox="0 0 2400 1600">
<defs>
  <clipPath id="clip050">
    <rect x="0" y="0" width="2400" height="1600"/>
  </clipPath>
</defs>
<path clip-path="url(#clip050)" d="M0 1600 L2400 1600 L2400 0 L0 0  Z" fill="#ffffff" fill-rule="evenodd" fill-opacity="1"/>
<defs>
  <clipPath id="clip051">
    <rect x="262" y="47" width="2091" height="1377"/>
  </clipPath>
</defs>
<path clip-path="url(#clip050)" d="M262.551 1423.18 L2352.76 1423.18 L2352.76 47.2441 L262.551 47.2441  Z" fill="#ffffff" fill-rule="evenodd" fill-opacity="1"/>
<polyline clip-path="url(#clip051)" style="stroke:#000000; stroke-linecap:round; stroke-linejoin:round; stroke-width:2; stroke-opacity:0.1; fill:none" points="321.708,1423.18 321.708,47.2441 "/>
<polyline clip-path="url(#clip051)" style="stroke:#000000; stroke-linecap:round; stroke-linejoin:round; stroke-width:2; stroke-opacity:0.1; fill:none" points="957.802,1423.18 957.802,47.2441 "/>
<polyline clip-path="url(#clip051)" style="stroke:#000000; stroke-linecap:round; stroke-linejoin:round; stroke-width:2; stroke-opacity:0.1; fill:none" points="1593.9,1423.18 1593.9,47.2441 "/>
<polyline clip-path="url(#clip051)" style="stroke:#000000; stroke-linecap:round; stroke-linejoin:round; stroke-width:2; stroke-opacity:0.1; fill:none" points="2229.99,1423.18 2229.99,47.2441 "/>
<polyline clip-path="url(#clip051)" style="stroke:#000000; stroke-linecap:round; stroke-linejoin:round; stroke-width:2; stroke-opacity:0.1; fill:none" points="262.551,1390.88 2352.76,1390.88 "/>
<polyline clip-path="url(#clip051)" style="stroke:#000000; stroke-linecap:round; stroke-linejoin:round; stroke-width:2; stroke-opacity:0.1; fill:none" points="262.551,1184.29 2352.76,1184.29 "/>
<polyline clip-path="url(#clip051)" style="stroke:#000000; stroke-linecap:round; stroke-linejoin:round; stroke-width:2; stroke-opacity:0.1; fill:none" points="262.551,977.705 2352.76,977.705 "/>
<polyline clip-path="url(#clip051)" style="stroke:#000000; stroke-linecap:round; stroke-linejoin:round; stroke-width:2; stroke-opacity:0.1; fill:none" points="262.551,771.117 2352.76,771.117 "/>
<polyline clip-path="url(#clip051)" style="stroke:#000000; stroke-linecap:round; stroke-linejoin:round; stroke-width:2; stroke-opacity:0.1; fill:none" points="262.551,564.529 2352.76,564.529 "/>
<polyline clip-path="url(#clip051)" style="stroke:#000000; stroke-linecap:round; stroke-linejoin:round; stroke-width:2; stroke-opacity:0.1; fill:none" points="262.551,357.941 2352.76,357.941 "/>
<polyline clip-path="url(#clip051)" style="stroke:#000000; stroke-linecap:round; stroke-linejoin:round; stroke-width:2; stroke-opacity:0.1; fill:none" points="262.551,151.354 2352.76,151.354 "/>
<polyline clip-path="url(#clip050)" style="stroke:#000000; stroke-linecap:round; stroke-linejoin:round; stroke-width:4; stroke-opacity:1; fill:none" points="262.551,1423.18 2352.76,1423.18 "/>
<polyline clip-path="url(#clip050)" style="stroke:#000000; stroke-linecap:round; stroke-linejoin:round; stroke-width:4; stroke-opacity:1; fill:none" points="321.708,1423.18 321.708,1404.28 "/>
<polyline clip-path="url(#clip050)" style="stroke:#000000; stroke-linecap:round; stroke-linejoin:round; stroke-width:4; stroke-opacity:1; fill:none" points="957.802,1423.18 957.802,1404.28 "/>
<polyline clip-path="url(#clip050)" style="stroke:#000000; stroke-linecap:round; stroke-linejoin:round; stroke-width:4; stroke-opacity:1; fill:none" points="1593.9,1423.18 1593.9,1404.28 "/>
<polyline clip-path="url(#clip050)" style="stroke:#000000; stroke-linecap:round; stroke-linejoin:round; stroke-width:4; stroke-opacity:1; fill:none" points="2229.99,1423.18 2229.99,1404.28 "/>
<path clip-path="url(#clip050)" d="M316.361 1481.64 L332.68 1481.64 L332.68 1485.58 L310.736 1485.58 L310.736 1481.64 Q313.398 1478.89 317.981 1474.26 Q322.588 1469.61 323.768 1468.27 Q326.013 1465.74 326.893 1464.01 Q327.796 1462.25 327.796 1460.56 Q327.796 1457.8 325.851 1456.07 Q323.93 1454.33 320.828 1454.33 Q318.629 1454.33 316.176 1455.09 Q313.745 1455.86 310.967 1457.41 L310.967 1452.69 Q313.791 1451.55 316.245 1450.97 Q318.699 1450.39 320.736 1450.39 Q326.106 1450.39 329.301 1453.08 Q332.495 1455.77 332.495 1460.26 Q332.495 1462.39 331.685 1464.31 Q330.898 1466.2 328.791 1468.8 Q328.213 1469.47 325.111 1472.69 Q322.009 1475.88 316.361 1481.64 Z" fill="#000000" fill-rule="nonzero" fill-opacity="1" /><path clip-path="url(#clip050)" d="M962.05 1466.95 Q965.406 1467.66 967.281 1469.93 Q969.179 1472.2 969.179 1475.53 Q969.179 1480.65 965.661 1483.45 Q962.142 1486.25 955.661 1486.25 Q953.485 1486.25 951.17 1485.81 Q948.878 1485.39 946.425 1484.54 L946.425 1480.02 Q948.369 1481.16 950.684 1481.74 Q952.999 1482.32 955.522 1482.32 Q959.92 1482.32 962.212 1480.58 Q964.526 1478.84 964.526 1475.53 Q964.526 1472.48 962.374 1470.77 Q960.244 1469.03 956.425 1469.03 L952.397 1469.03 L952.397 1465.19 L956.61 1465.19 Q960.059 1465.19 961.888 1463.82 Q963.716 1462.43 963.716 1459.84 Q963.716 1457.18 961.818 1455.77 Q959.943 1454.33 956.425 1454.33 Q954.503 1454.33 952.304 1454.75 Q950.105 1455.16 947.466 1456.04 L947.466 1451.88 Q950.128 1451.14 952.443 1450.77 Q954.781 1450.39 956.841 1450.39 Q962.165 1450.39 965.267 1452.83 Q968.369 1455.23 968.369 1459.35 Q968.369 1462.22 966.725 1464.21 Q965.082 1466.18 962.05 1466.95 Z" fill="#000000" fill-rule="nonzero" fill-opacity="1" /><path clip-path="url(#clip050)" d="M1596.91 1455.09 L1585.1 1473.54 L1596.91 1473.54 L1596.91 1455.09 M1595.68 1451.02 L1601.56 1451.02 L1601.56 1473.54 L1606.49 1473.54 L1606.49 1477.43 L1601.56 1477.43 L1601.56 1485.58 L1596.91 1485.58 L1596.91 1477.43 L1581.3 1477.43 L1581.3 1472.92 L1595.68 1451.02 Z" fill="#000000" fill-rule="nonzero" fill-opacity="1" /><path clip-path="url(#clip050)" d="M2220.27 1451.02 L2238.62 1451.02 L2238.62 1454.96 L2224.55 1454.96 L2224.55 1463.43 Q2225.57 1463.08 2226.59 1462.92 Q2227.61 1462.73 2228.62 1462.73 Q2234.41 1462.73 2237.79 1465.9 Q2241.17 1469.08 2241.17 1474.49 Q2241.17 1480.07 2237.7 1483.17 Q2234.23 1486.25 2227.91 1486.25 Q2225.73 1486.25 2223.46 1485.88 Q2221.22 1485.51 2218.81 1484.77 L2218.81 1480.07 Q2220.89 1481.2 2223.11 1481.76 Q2225.34 1482.32 2227.81 1482.32 Q2231.82 1482.32 2234.16 1480.21 Q2236.49 1478.1 2236.49 1474.49 Q2236.49 1470.88 2234.16 1468.77 Q2231.82 1466.67 2227.81 1466.67 Q2225.94 1466.67 2224.06 1467.08 Q2222.21 1467.5 2220.27 1468.38 L2220.27 1451.02 Z" fill="#000000" fill-rule="nonzero" fill-opacity="1" /><path clip-path="url(#clip050)" d="M1165.3 1520.52 L1192.61 1520.52 L1192.61 1525.93 L1171.73 1525.93 L1171.73 1539.94 L1190.57 1539.94 L1190.57 1545.35 L1171.73 1545.35 L1171.73 1568.04 L1165.3 1568.04 L1165.3 1520.52 Z" fill="#000000" fill-rule="nonzero" fill-opacity="1" /><path clip-path="url(#clip050)" d="M1214.03 1536.5 Q1209.32 1536.5 1206.58 1540.19 Q1203.84 1543.85 1203.84 1550.25 Q1203.84 1556.65 1206.55 1560.34 Q1209.29 1564 1214.03 1564 Q1218.71 1564 1221.45 1560.31 Q1224.18 1556.62 1224.18 1550.25 Q1224.18 1543.92 1221.45 1540.23 Q1218.71 1536.5 1214.03 1536.5 M1214.03 1531.54 Q1221.67 1531.54 1226.03 1536.5 Q1230.39 1541.47 1230.39 1550.25 Q1230.39 1559 1226.03 1564 Q1221.67 1568.97 1214.03 1568.97 Q1206.36 1568.97 1202 1564 Q1197.67 1559 1197.67 1550.25 Q1197.67 1541.47 1202 1536.5 Q1206.36 1531.54 1214.03 1531.54 Z" fill="#000000" fill-rule="nonzero" fill-opacity="1" /><path clip-path="url(#clip050)" d="M1260.75 1537.87 Q1259.77 1537.3 1258.59 1537.04 Q1257.44 1536.76 1256.04 1536.76 Q1251.08 1536.76 1248.4 1540 Q1245.76 1543.22 1245.76 1549.27 L1245.76 1568.04 L1239.87 1568.04 L1239.87 1532.4 L1245.76 1532.4 L1245.76 1537.93 Q1247.61 1534.69 1250.57 1533.13 Q1253.53 1531.54 1257.76 1531.54 Q1258.37 1531.54 1259.1 1531.63 Q1259.83 1531.7 1260.72 1531.85 L1260.75 1537.87 Z" fill="#000000" fill-rule="nonzero" fill-opacity="1" /><path clip-path="url(#clip050)" d="M1291.12 1533.76 L1291.12 1539.24 Q1288.64 1537.87 1286.12 1537.2 Q1283.64 1536.5 1281.09 1536.5 Q1275.4 1536.5 1272.24 1540.13 Q1269.09 1543.73 1269.09 1550.25 Q1269.09 1556.78 1272.24 1560.4 Q1275.4 1564 1281.09 1564 Q1283.64 1564 1286.12 1563.33 Q1288.64 1562.63 1291.12 1561.26 L1291.12 1566.68 Q1288.67 1567.82 1286.03 1568.39 Q1283.42 1568.97 1280.46 1568.97 Q1272.4 1568.97 1267.66 1563.91 Q1262.92 1558.85 1262.92 1550.25 Q1262.92 1541.53 1267.69 1536.53 Q1272.5 1531.54 1280.84 1531.54 Q1283.54 1531.54 1286.12 1532.11 Q1288.7 1532.65 1291.12 1533.76 Z" fill="#000000" fill-rule="nonzero" fill-opacity="1" /><path clip-path="url(#clip050)" d="M1331.8 1548.76 L1331.8 1551.62 L1304.87 1551.62 Q1305.25 1557.67 1308.5 1560.85 Q1311.78 1564 1317.6 1564 Q1320.97 1564 1324.12 1563.17 Q1327.31 1562.35 1330.43 1560.69 L1330.43 1566.23 Q1327.28 1567.57 1323.97 1568.27 Q1320.66 1568.97 1317.25 1568.97 Q1308.72 1568.97 1303.72 1564 Q1298.76 1559.04 1298.76 1550.57 Q1298.76 1541.82 1303.47 1536.69 Q1308.21 1531.54 1316.23 1531.54 Q1323.42 1531.54 1327.59 1536.18 Q1331.8 1540.8 1331.8 1548.76 M1325.94 1547.04 Q1325.88 1542.23 1323.23 1539.37 Q1320.62 1536.5 1316.3 1536.5 Q1311.39 1536.5 1308.43 1539.27 Q1305.51 1542.04 1305.06 1547.07 L1325.94 1547.04 Z" fill="#000000" fill-rule="nonzero" fill-opacity="1" /><path clip-path="url(#clip050)" d="M1376.2 1518.58 Q1371.93 1525.9 1369.86 1533.06 Q1367.79 1540.23 1367.79 1547.58 Q1367.79 1554.93 1369.86 1562.16 Q1371.96 1569.35 1376.2 1576.64 L1371.1 1576.64 Q1366.33 1569.16 1363.94 1561.93 Q1361.59 1554.71 1361.59 1547.58 Q1361.59 1540.48 1363.94 1533.29 Q1366.3 1526.09 1371.1 1518.58 L1376.2 1518.58 Z" fill="#000000" fill-rule="nonzero" fill-opacity="1" /><path clip-path="url(#clip050)" d="M1387.81 1520.52 L1396.47 1520.52 L1417.54 1560.28 L1417.54 1520.52 L1423.78 1520.52 L1423.78 1568.04 L1415.12 1568.04 L1394.05 1528.29 L1394.05 1568.04 L1387.81 1568.04 L1387.81 1520.52 Z" fill="#000000" fill-rule="nonzero" fill-opacity="1" /><path clip-path="url(#clip050)" d="M1435.4 1518.58 L1440.49 1518.58 Q1445.26 1526.09 1447.62 1533.29 Q1450.01 1540.48 1450.01 1547.58 Q1450.01 1554.71 1447.62 1561.93 Q1445.26 1569.16 1440.49 1576.64 L1435.4 1576.64 Q1439.63 1569.35 1441.7 1562.16 Q1443.8 1554.93 1443.8 1547.58 Q1443.8 1540.23 1441.7 1533.06 Q1439.63 1525.9 1435.4 1518.58 Z" fill="#000000" fill-rule="nonzero" fill-opacity="1" /><polyline clip-path="url(#clip050)" style="stroke:#000000; stroke-linecap:round; stroke-linejoin:round; stroke-width:4; stroke-opacity:1; fill:none" points="262.551,1423.18 262.551,47.2441 "/>
<polyline clip-path="url(#clip050)" style="stroke:#000000; stroke-linecap:round; stroke-linejoin:round; stroke-width:4; stroke-opacity:1; fill:none" points="262.551,1390.88 281.449,1390.88 "/>
<polyline clip-path="url(#clip050)" style="stroke:#000000; stroke-linecap:round; stroke-linejoin:round; stroke-width:4; stroke-opacity:1; fill:none" points="262.551,1184.29 281.449,1184.29 "/>
<polyline clip-path="url(#clip050)" style="stroke:#000000; stroke-linecap:round; stroke-linejoin:round; stroke-width:4; stroke-opacity:1; fill:none" points="262.551,977.705 281.449,977.705 "/>
<polyline clip-path="url(#clip050)" style="stroke:#000000; stroke-linecap:round; stroke-linejoin:round; stroke-width:4; stroke-opacity:1; fill:none" points="262.551,771.117 281.449,771.117 "/>
<polyline clip-path="url(#clip050)" style="stroke:#000000; stroke-linecap:round; stroke-linejoin:round; stroke-width:4; stroke-opacity:1; fill:none" points="262.551,564.529 281.449,564.529 "/>
<polyline clip-path="url(#clip050)" style="stroke:#000000; stroke-linecap:round; stroke-linejoin:round; stroke-width:4; stroke-opacity:1; fill:none" points="262.551,357.941 281.449,357.941 "/>
<polyline clip-path="url(#clip050)" style="stroke:#000000; stroke-linecap:round; stroke-linejoin:round; stroke-width:4; stroke-opacity:1; fill:none" points="262.551,151.354 281.449,151.354 "/>
<path clip-path="url(#clip050)" d="M214.607 1376.68 Q210.996 1376.68 209.167 1380.24 Q207.362 1383.79 207.362 1390.91 Q207.362 1398.02 209.167 1401.59 Q210.996 1405.13 214.607 1405.13 Q218.241 1405.13 220.047 1401.59 Q221.875 1398.02 221.875 1390.91 Q221.875 1383.79 220.047 1380.24 Q218.241 1376.68 214.607 1376.68 M214.607 1372.98 Q220.417 1372.98 223.473 1377.58 Q226.551 1382.16 226.551 1390.91 Q226.551 1399.64 223.473 1404.25 Q220.417 1408.83 214.607 1408.83 Q208.797 1408.83 205.718 1404.25 Q202.662 1399.64 202.662 1390.91 Q202.662 1382.16 205.718 1377.58 Q208.797 1372.98 214.607 1372.98 Z" fill="#000000" fill-rule="nonzero" fill-opacity="1" /><path clip-path="url(#clip050)" d="M148.311 1197.64 L164.63 1197.64 L164.63 1201.57 L142.686 1201.57 L142.686 1197.64 Q145.348 1194.88 149.931 1190.25 Q154.538 1185.6 155.718 1184.26 Q157.964 1181.73 158.843 1180 Q159.746 1178.24 159.746 1176.55 Q159.746 1173.79 157.802 1172.06 Q155.88 1170.32 152.778 1170.32 Q150.579 1170.32 148.126 1171.09 Q145.695 1171.85 142.917 1173.4 L142.917 1168.68 Q145.741 1167.54 148.195 1166.97 Q150.649 1166.39 152.686 1166.39 Q158.056 1166.39 161.251 1169.07 Q164.445 1171.76 164.445 1176.25 Q164.445 1178.38 163.635 1180.3 Q162.848 1182.2 160.741 1184.79 Q160.163 1185.46 157.061 1188.68 Q153.959 1191.87 148.311 1197.64 Z" fill="#000000" fill-rule="nonzero" fill-opacity="1" /><path clip-path="url(#clip050)" d="M184.445 1170.09 Q180.834 1170.09 179.005 1173.66 Q177.2 1177.2 177.2 1184.33 Q177.2 1191.43 179.005 1195 Q180.834 1198.54 184.445 1198.54 Q188.079 1198.54 189.885 1195 Q191.713 1191.43 191.713 1184.33 Q191.713 1177.2 189.885 1173.66 Q188.079 1170.09 184.445 1170.09 M184.445 1166.39 Q190.255 1166.39 193.311 1170.99 Q196.389 1175.58 196.389 1184.33 Q196.389 1193.05 193.311 1197.66 Q190.255 1202.24 184.445 1202.24 Q178.635 1202.24 175.556 1197.66 Q172.501 1193.05 172.501 1184.33 Q172.501 1175.58 175.556 1170.99 Q178.635 1166.39 184.445 1166.39 Z" fill="#000000" fill-rule="nonzero" fill-opacity="1" /><path clip-path="url(#clip050)" d="M214.607 1170.09 Q210.996 1170.09 209.167 1173.66 Q207.362 1177.2 207.362 1184.33 Q207.362 1191.43 209.167 1195 Q210.996 1198.54 214.607 1198.54 Q218.241 1198.54 220.047 1195 Q221.875 1191.43 221.875 1184.33 Q221.875 1177.2 220.047 1173.66 Q218.241 1170.09 214.607 1170.09 M214.607 1166.39 Q220.417 1166.39 223.473 1170.99 Q226.551 1175.58 226.551 1184.33 Q226.551 1193.05 223.473 1197.66 Q220.417 1202.24 214.607 1202.24 Q208.797 1202.24 205.718 1197.66 Q202.662 1193.05 202.662 1184.33 Q202.662 1175.58 205.718 1170.99 Q208.797 1166.39 214.607 1166.39 Z" fill="#000000" fill-rule="nonzero" fill-opacity="1" /><path clip-path="url(#clip050)" d="M157.13 964.499 L145.325 982.948 L157.13 982.948 L157.13 964.499 M155.903 960.425 L161.783 960.425 L161.783 982.948 L166.714 982.948 L166.714 986.837 L161.783 986.837 L161.783 994.985 L157.13 994.985 L157.13 986.837 L141.529 986.837 L141.529 982.323 L155.903 960.425 Z" fill="#000000" fill-rule="nonzero" fill-opacity="1" /><path clip-path="url(#clip050)" d="M184.445 963.503 Q180.834 963.503 179.005 967.068 Q177.2 970.61 177.2 977.739 Q177.2 984.846 179.005 988.411 Q180.834 991.952 184.445 991.952 Q188.079 991.952 189.885 988.411 Q191.713 984.846 191.713 977.739 Q191.713 970.61 189.885 967.068 Q188.079 963.503 184.445 963.503 M184.445 959.8 Q190.255 959.8 193.311 964.406 Q196.389 968.989 196.389 977.739 Q196.389 986.466 193.311 991.073 Q190.255 995.656 184.445 995.656 Q178.635 995.656 175.556 991.073 Q172.501 986.466 172.501 977.739 Q172.501 968.989 175.556 964.406 Q178.635 959.8 184.445 959.8 Z" fill="#000000" fill-rule="nonzero" fill-opacity="1" /><path clip-path="url(#clip050)" d="M214.607 963.503 Q210.996 963.503 209.167 967.068 Q207.362 970.61 207.362 977.739 Q207.362 984.846 209.167 988.411 Q210.996 991.952 214.607 991.952 Q218.241 991.952 220.047 988.411 Q221.875 984.846 221.875 977.739 Q221.875 970.61 220.047 967.068 Q218.241 963.503 214.607 963.503 M214.607 959.8 Q220.417 959.8 223.473 964.406 Q226.551 968.989 226.551 977.739 Q226.551 986.466 223.473 991.073 Q220.417 995.656 214.607 995.656 Q208.797 995.656 205.718 991.073 Q202.662 986.466 202.662 977.739 Q202.662 968.989 205.718 964.406 Q208.797 959.8 214.607 959.8 Z" fill="#000000" fill-rule="nonzero" fill-opacity="1" /><path clip-path="url(#clip050)" d="M154.862 769.253 Q151.714 769.253 149.862 771.406 Q148.033 773.559 148.033 777.309 Q148.033 781.036 149.862 783.212 Q151.714 785.365 154.862 785.365 Q158.01 785.365 159.839 783.212 Q161.69 781.036 161.69 777.309 Q161.69 773.559 159.839 771.406 Q158.01 769.253 154.862 769.253 M164.144 754.601 L164.144 758.86 Q162.385 758.027 160.579 757.587 Q158.797 757.147 157.038 757.147 Q152.408 757.147 149.954 760.272 Q147.524 763.397 147.177 769.716 Q148.542 767.703 150.603 766.638 Q152.663 765.55 155.14 765.55 Q160.348 765.55 163.357 768.721 Q166.39 771.869 166.39 777.309 Q166.39 782.633 163.241 785.851 Q160.093 789.068 154.862 789.068 Q148.866 789.068 145.695 784.485 Q142.524 779.878 142.524 771.152 Q142.524 762.957 146.413 758.096 Q150.302 753.212 156.853 753.212 Q158.612 753.212 160.394 753.559 Q162.2 753.906 164.144 754.601 Z" fill="#000000" fill-rule="nonzero" fill-opacity="1" /><path clip-path="url(#clip050)" d="M184.445 756.916 Q180.834 756.916 179.005 760.48 Q177.2 764.022 177.2 771.152 Q177.2 778.258 179.005 781.823 Q180.834 785.365 184.445 785.365 Q188.079 785.365 189.885 781.823 Q191.713 778.258 191.713 771.152 Q191.713 764.022 189.885 760.48 Q188.079 756.916 184.445 756.916 M184.445 753.212 Q190.255 753.212 193.311 757.818 Q196.389 762.402 196.389 771.152 Q196.389 779.878 193.311 784.485 Q190.255 789.068 184.445 789.068 Q178.635 789.068 175.556 784.485 Q172.501 779.878 172.501 771.152 Q172.501 762.402 175.556 757.818 Q178.635 753.212 184.445 753.212 Z" fill="#000000" fill-rule="nonzero" fill-opacity="1" /><path clip-path="url(#clip050)" d="M214.607 756.916 Q210.996 756.916 209.167 760.48 Q207.362 764.022 207.362 771.152 Q207.362 778.258 209.167 781.823 Q210.996 785.365 214.607 785.365 Q218.241 785.365 220.047 781.823 Q221.875 778.258 221.875 771.152 Q221.875 764.022 220.047 760.48 Q218.241 756.916 214.607 756.916 M214.607 753.212 Q220.417 753.212 223.473 757.818 Q226.551 762.402 226.551 771.152 Q226.551 779.878 223.473 784.485 Q220.417 789.068 214.607 789.068 Q208.797 789.068 205.718 784.485 Q202.662 779.878 202.662 771.152 Q202.662 762.402 205.718 757.818 Q208.797 753.212 214.607 753.212 Z" fill="#000000" fill-rule="nonzero" fill-opacity="1" /><path clip-path="url(#clip050)" d="M154.283 565.397 Q150.95 565.397 149.028 567.18 Q147.13 568.962 147.13 572.087 Q147.13 575.212 149.028 576.994 Q150.95 578.777 154.283 578.777 Q157.616 578.777 159.538 576.994 Q161.459 575.189 161.459 572.087 Q161.459 568.962 159.538 567.18 Q157.64 565.397 154.283 565.397 M149.607 563.406 Q146.598 562.666 144.908 560.606 Q143.241 558.545 143.241 555.582 Q143.241 551.439 146.181 549.032 Q149.144 546.624 154.283 546.624 Q159.445 546.624 162.385 549.032 Q165.325 551.439 165.325 555.582 Q165.325 558.545 163.635 560.606 Q161.968 562.666 158.982 563.406 Q162.362 564.194 164.237 566.485 Q166.135 568.777 166.135 572.087 Q166.135 577.11 163.056 579.795 Q160.001 582.48 154.283 582.48 Q148.566 582.48 145.487 579.795 Q142.431 577.11 142.431 572.087 Q142.431 568.777 144.329 566.485 Q146.228 564.194 149.607 563.406 M147.894 556.022 Q147.894 558.707 149.561 560.212 Q151.251 561.717 154.283 561.717 Q157.292 561.717 158.982 560.212 Q160.695 558.707 160.695 556.022 Q160.695 553.337 158.982 551.832 Q157.292 550.328 154.283 550.328 Q151.251 550.328 149.561 551.832 Q147.894 553.337 147.894 556.022 Z" fill="#000000" fill-rule="nonzero" fill-opacity="1" /><path clip-path="url(#clip050)" d="M184.445 550.328 Q180.834 550.328 179.005 553.893 Q177.2 557.434 177.2 564.564 Q177.2 571.67 179.005 575.235 Q180.834 578.777 184.445 578.777 Q188.079 578.777 189.885 575.235 Q191.713 571.67 191.713 564.564 Q191.713 557.434 189.885 553.893 Q188.079 550.328 184.445 550.328 M184.445 546.624 Q190.255 546.624 193.311 551.231 Q196.389 555.814 196.389 564.564 Q196.389 573.291 193.311 577.897 Q190.255 582.48 184.445 582.48 Q178.635 582.48 175.556 577.897 Q172.501 573.291 172.501 564.564 Q172.501 555.814 175.556 551.231 Q178.635 546.624 184.445 546.624 Z" fill="#000000" fill-rule="nonzero" fill-opacity="1" /><path clip-path="url(#clip050)" d="M214.607 550.328 Q210.996 550.328 209.167 553.893 Q207.362 557.434 207.362 564.564 Q207.362 571.67 209.167 575.235 Q210.996 578.777 214.607 578.777 Q218.241 578.777 220.047 575.235 Q221.875 571.67 221.875 564.564 Q221.875 557.434 220.047 553.893 Q218.241 550.328 214.607 550.328 M214.607 546.624 Q220.417 546.624 223.473 551.231 Q226.551 555.814 226.551 564.564 Q226.551 573.291 223.473 577.897 Q220.417 582.48 214.607 582.48 Q208.797 582.48 205.718 577.897 Q202.662 573.291 202.662 564.564 Q202.662 555.814 205.718 551.231 Q208.797 546.624 214.607 546.624 Z" fill="#000000" fill-rule="nonzero" fill-opacity="1" /><path clip-path="url(#clip050)" d="M114.931 371.286 L122.57 371.286 L122.57 344.921 L114.26 346.587 L114.26 342.328 L122.524 340.661 L127.2 340.661 L127.2 371.286 L134.839 371.286 L134.839 375.221 L114.931 375.221 L114.931 371.286 Z" fill="#000000" fill-rule="nonzero" fill-opacity="1" /><path clip-path="url(#clip050)" d="M154.283 343.74 Q150.672 343.74 148.843 347.305 Q147.038 350.847 147.038 357.976 Q147.038 365.083 148.843 368.647 Q150.672 372.189 154.283 372.189 Q157.917 372.189 159.723 368.647 Q161.552 365.083 161.552 357.976 Q161.552 350.847 159.723 347.305 Q157.917 343.74 154.283 343.74 M154.283 340.036 Q160.093 340.036 163.149 344.643 Q166.227 349.226 166.227 357.976 Q166.227 366.703 163.149 371.309 Q160.093 375.893 154.283 375.893 Q148.473 375.893 145.394 371.309 Q142.339 366.703 142.339 357.976 Q142.339 349.226 145.394 344.643 Q148.473 340.036 154.283 340.036 Z" fill="#000000" fill-rule="nonzero" fill-opacity="1" /><path clip-path="url(#clip050)" d="M184.445 343.74 Q180.834 343.74 179.005 347.305 Q177.2 350.847 177.2 357.976 Q177.2 365.083 179.005 368.647 Q180.834 372.189 184.445 372.189 Q188.079 372.189 189.885 368.647 Q191.713 365.083 191.713 357.976 Q191.713 350.847 189.885 347.305 Q188.079 343.74 184.445 343.74 M184.445 340.036 Q190.255 340.036 193.311 344.643 Q196.389 349.226 196.389 357.976 Q196.389 366.703 193.311 371.309 Q190.255 375.893 184.445 375.893 Q178.635 375.893 175.556 371.309 Q172.501 366.703 172.501 357.976 Q172.501 349.226 175.556 344.643 Q178.635 340.036 184.445 340.036 Z" fill="#000000" fill-rule="nonzero" fill-opacity="1" /><path clip-path="url(#clip050)" d="M214.607 343.74 Q210.996 343.74 209.167 347.305 Q207.362 350.847 207.362 357.976 Q207.362 365.083 209.167 368.647 Q210.996 372.189 214.607 372.189 Q218.241 372.189 220.047 368.647 Q221.875 365.083 221.875 357.976 Q221.875 350.847 220.047 347.305 Q218.241 343.74 214.607 343.74 M214.607 340.036 Q220.417 340.036 223.473 344.643 Q226.551 349.226 226.551 357.976 Q226.551 366.703 223.473 371.309 Q220.417 375.893 214.607 375.893 Q208.797 375.893 205.718 371.309 Q202.662 366.703 202.662 357.976 Q202.662 349.226 205.718 344.643 Q208.797 340.036 214.607 340.036 Z" fill="#000000" fill-rule="nonzero" fill-opacity="1" /><path clip-path="url(#clip050)" d="M114.931 164.699 L122.57 164.699 L122.57 138.333 L114.26 140 L114.26 135.74 L122.524 134.074 L127.2 134.074 L127.2 164.699 L134.839 164.699 L134.839 168.634 L114.931 168.634 L114.931 164.699 Z" fill="#000000" fill-rule="nonzero" fill-opacity="1" /><path clip-path="url(#clip050)" d="M148.311 164.699 L164.63 164.699 L164.63 168.634 L142.686 168.634 L142.686 164.699 Q145.348 161.944 149.931 157.314 Q154.538 152.662 155.718 151.319 Q157.964 148.796 158.843 147.06 Q159.746 145.301 159.746 143.611 Q159.746 140.856 157.802 139.12 Q155.88 137.384 152.778 137.384 Q150.579 137.384 148.126 138.148 Q145.695 138.912 142.917 140.463 L142.917 135.74 Q145.741 134.606 148.195 134.027 Q150.649 133.449 152.686 133.449 Q158.056 133.449 161.251 136.134 Q164.445 138.819 164.445 143.31 Q164.445 145.439 163.635 147.361 Q162.848 149.259 160.741 151.851 Q160.163 152.523 157.061 155.74 Q153.959 158.935 148.311 164.699 Z" fill="#000000" fill-rule="nonzero" fill-opacity="1" /><path clip-path="url(#clip050)" d="M184.445 137.152 Q180.834 137.152 179.005 140.717 Q177.2 144.259 177.2 151.388 Q177.2 158.495 179.005 162.06 Q180.834 165.601 184.445 165.601 Q188.079 165.601 189.885 162.06 Q191.713 158.495 191.713 151.388 Q191.713 144.259 189.885 140.717 Q188.079 137.152 184.445 137.152 M184.445 133.449 Q190.255 133.449 193.311 138.055 Q196.389 142.639 196.389 151.388 Q196.389 160.115 193.311 164.722 Q190.255 169.305 184.445 169.305 Q178.635 169.305 175.556 164.722 Q172.501 160.115 172.501 151.388 Q172.501 142.639 175.556 138.055 Q178.635 133.449 184.445 133.449 Z" fill="#000000" fill-rule="nonzero" fill-opacity="1" /><path clip-path="url(#clip050)" d="M214.607 137.152 Q210.996 137.152 209.167 140.717 Q207.362 144.259 207.362 151.388 Q207.362 158.495 209.167 162.06 Q210.996 165.601 214.607 165.601 Q218.241 165.601 220.047 162.06 Q221.875 158.495 221.875 151.388 Q221.875 144.259 220.047 140.717 Q218.241 137.152 214.607 137.152 M214.607 133.449 Q220.417 133.449 223.473 138.055 Q226.551 142.639 226.551 151.388 Q226.551 160.115 223.473 164.722 Q220.417 169.305 214.607 169.305 Q208.797 169.305 205.718 164.722 Q202.662 160.115 202.662 151.388 Q202.662 142.639 205.718 138.055 Q208.797 133.449 214.607 133.449 Z" fill="#000000" fill-rule="nonzero" fill-opacity="1" /><path clip-path="url(#clip050)" d="M16.4842 865.041 L16.4842 824.841 L21.895 824.841 L21.895 841.71 L64.0042 841.71 L64.0042 848.171 L21.895 848.171 L21.895 865.041 L16.4842 865.041 Z" fill="#000000" fill-rule="nonzero" fill-opacity="1" /><path clip-path="url(#clip050)" d="M28.3562 820.894 L28.3562 815.038 L64.0042 815.038 L64.0042 820.894 L28.3562 820.894 M14.479 820.894 L14.479 815.038 L21.895 815.038 L21.895 820.894 L14.479 820.894 Z" fill="#000000" fill-rule="nonzero" fill-opacity="1" /><path clip-path="url(#clip050)" d="M35.1993 775.029 Q31.2526 772.833 29.3747 769.778 Q27.4968 766.722 27.4968 762.585 Q27.4968 757.015 31.4117 753.991 Q35.2948 750.967 42.4881 750.967 L64.0042 750.967 L64.0042 756.855 L42.679 756.855 Q37.5546 756.855 35.072 758.67 Q32.5894 760.484 32.5894 764.208 Q32.5894 768.759 35.6131 771.401 Q38.6368 774.043 43.8567 774.043 L64.0042 774.043 L64.0042 779.931 L42.679 779.931 Q37.5228 779.931 35.072 781.745 Q32.5894 783.56 32.5894 787.347 Q32.5894 791.835 35.6449 794.477 Q38.6686 797.118 43.8567 797.118 L64.0042 797.118 L64.0042 803.007 L28.3562 803.007 L28.3562 797.118 L33.8944 797.118 Q30.616 795.113 29.0564 792.312 Q27.4968 789.511 27.4968 785.66 Q27.4968 781.777 29.4702 779.072 Q31.4436 776.334 35.1993 775.029 Z" fill="#000000" fill-rule="nonzero" fill-opacity="1" /><path clip-path="url(#clip050)" d="M44.7161 708.794 L47.5806 708.794 L47.5806 735.721 Q53.6281 735.339 56.8109 732.093 Q59.9619 728.814 59.9619 722.99 Q59.9619 719.616 59.1344 716.465 Q58.3069 713.282 56.6518 710.163 L62.1899 710.163 Q63.5267 713.314 64.227 716.624 Q64.9272 719.934 64.9272 723.34 Q64.9272 731.87 59.9619 736.867 Q54.9967 741.832 46.5303 741.832 Q37.7774 741.832 32.6531 737.122 Q27.4968 732.379 27.4968 724.358 Q27.4968 717.165 32.1438 712.996 Q36.7589 708.794 44.7161 708.794 M42.9973 714.651 Q38.1912 714.714 35.3266 717.356 Q32.4621 719.966 32.4621 724.295 Q32.4621 729.196 35.2312 732.156 Q38.0002 735.085 43.0292 735.53 L42.9973 714.651 Z" fill="#000000" fill-rule="nonzero" fill-opacity="1" /><path clip-path="url(#clip050)" d="M14.5426 664.393 Q21.8632 668.659 29.0246 670.727 Q36.186 672.796 43.5384 672.796 Q50.8908 672.796 58.1159 670.727 Q65.3091 668.627 72.5979 664.393 L72.5979 669.486 Q65.1182 674.26 57.8931 676.647 Q50.668 679.003 43.5384 679.003 Q36.4406 679.003 29.2474 676.647 Q22.0542 674.292 14.5426 669.486 L14.5426 664.393 Z" fill="#000000" fill-rule="nonzero" fill-opacity="1" /><path clip-path="url(#clip050)" d="M29.4065 630.305 L34.9447 630.305 Q33.6716 632.788 33.035 635.461 Q32.3984 638.135 32.3984 641 Q32.3984 645.36 33.7352 647.556 Q35.072 649.721 37.7456 649.721 Q39.7826 649.721 40.9603 648.161 Q42.1061 646.601 43.1565 641.891 L43.6021 639.886 Q44.9389 633.647 47.3897 631.037 Q49.8086 628.395 54.1691 628.395 Q59.1344 628.395 62.0308 632.342 Q64.9272 636.257 64.9272 643.132 Q64.9272 645.997 64.3543 649.116 Q63.8132 652.203 62.6992 655.641 L56.6518 655.641 Q58.3387 652.394 59.198 649.243 Q60.0256 646.092 60.0256 643.005 Q60.0256 638.867 58.6251 636.639 Q57.1929 634.411 54.6147 634.411 Q52.2276 634.411 50.9545 636.034 Q49.6813 637.626 48.5037 643.068 L48.0262 645.105 Q46.8804 650.548 44.5251 652.967 Q42.138 655.386 38.0002 655.386 Q32.9713 655.386 30.2341 651.821 Q27.4968 648.256 27.4968 641.7 Q27.4968 638.453 27.9743 635.589 Q28.4517 632.724 29.4065 630.305 Z" fill="#000000" fill-rule="nonzero" fill-opacity="1" /><path clip-path="url(#clip050)" d="M14.5426 619.993 L14.5426 614.9 Q22.0542 610.126 29.2474 607.771 Q36.4406 605.383 43.5384 605.383 Q50.668 605.383 57.8931 607.771 Q65.1182 610.126 72.5979 614.9 L72.5979 619.993 Q65.3091 615.759 58.1159 613.691 Q50.8908 611.59 43.5384 611.59 Q36.186 611.59 29.0246 613.691 Q21.8632 615.759 14.5426 619.993 Z" fill="#000000" fill-rule="nonzero" fill-opacity="1" /><circle clip-path="url(#clip051)" cx="321.708" cy="867.831" r="14.4" fill="#1e88e5" fill-rule="evenodd" fill-opacity="1" stroke="#000000" stroke-opacity="1" stroke-width="3.2"/>
<circle clip-path="url(#clip051)" cx="321.708" cy="86.1857" r="14.4" fill="#1e88e5" fill-rule="evenodd" fill-opacity="1" stroke="#000000" stroke-opacity="1" stroke-width="3.2"/>
<circle clip-path="url(#clip051)" cx="321.708" cy="1236.35" r="14.4" fill="#1e88e5" fill-rule="evenodd" fill-opacity="1" stroke="#000000" stroke-opacity="1" stroke-width="3.2"/>
<circle clip-path="url(#clip051)" cx="321.708" cy="421.199" r="14.4" fill="#1e88e5" fill-rule="evenodd" fill-opacity="1" stroke="#000000" stroke-opacity="1" stroke-width="3.2"/>
<circle clip-path="url(#clip051)" cx="321.708" cy="846.986" r="14.4" fill="#1e88e5" fill-rule="evenodd" fill-opacity="1" stroke="#000000" stroke-opacity="1" stroke-width="3.2"/>
<circle clip-path="url(#clip051)" cx="321.708" cy="660.613" r="14.4" fill="#1e88e5" fill-rule="evenodd" fill-opacity="1" stroke="#000000" stroke-opacity="1" stroke-width="3.2"/>
<circle clip-path="url(#clip051)" cx="321.708" cy="919.137" r="14.4" fill="#1e88e5" fill-rule="evenodd" fill-opacity="1" stroke="#000000" stroke-opacity="1" stroke-width="3.2"/>
<circle clip-path="url(#clip051)" cx="321.708" cy="1071.66" r="14.4" fill="#1e88e5" fill-rule="evenodd" fill-opacity="1" stroke="#000000" stroke-opacity="1" stroke-width="3.2"/>
<circle clip-path="url(#clip051)" cx="321.708" cy="866.591" r="14.4" fill="#1e88e5" fill-rule="evenodd" fill-opacity="1" stroke="#000000" stroke-opacity="1" stroke-width="3.2"/>
<circle clip-path="url(#clip051)" cx="321.708" cy="1172.14" r="14.4" fill="#1e88e5" fill-rule="evenodd" fill-opacity="1" stroke="#000000" stroke-opacity="1" stroke-width="3.2"/>
<circle clip-path="url(#clip051)" cx="639.755" cy="1112.24" r="14.4" fill="#1e88e5" fill-rule="evenodd" fill-opacity="1" stroke="#000000" stroke-opacity="1" stroke-width="3.2"/>
<circle clip-path="url(#clip051)" cx="639.755" cy="1032.7" r="14.4" fill="#1e88e5" fill-rule="evenodd" fill-opacity="1" stroke="#000000" stroke-opacity="1" stroke-width="3.2"/>
<circle clip-path="url(#clip051)" cx="639.755" cy="1055.84" r="14.4" fill="#1e88e5" fill-rule="evenodd" fill-opacity="1" stroke="#000000" stroke-opacity="1" stroke-width="3.2"/>
<circle clip-path="url(#clip051)" cx="639.755" cy="1168.73" r="14.4" fill="#1e88e5" fill-rule="evenodd" fill-opacity="1" stroke="#000000" stroke-opacity="1" stroke-width="3.2"/>
<circle clip-path="url(#clip051)" cx="639.755" cy="1256.41" r="14.4" fill="#1e88e5" fill-rule="evenodd" fill-opacity="1" stroke="#000000" stroke-opacity="1" stroke-width="3.2"/>
<circle clip-path="url(#clip051)" cx="639.755" cy="1264.93" r="14.4" fill="#1e88e5" fill-rule="evenodd" fill-opacity="1" stroke="#000000" stroke-opacity="1" stroke-width="3.2"/>
<circle clip-path="url(#clip051)" cx="639.755" cy="1216.48" r="14.4" fill="#1e88e5" fill-rule="evenodd" fill-opacity="1" stroke="#000000" stroke-opacity="1" stroke-width="3.2"/>
<circle clip-path="url(#clip051)" cx="639.755" cy="973.077" r="14.4" fill="#1e88e5" fill-rule="evenodd" fill-opacity="1" stroke="#000000" stroke-opacity="1" stroke-width="3.2"/>
<circle clip-path="url(#clip051)" cx="639.755" cy="1263.05" r="14.4" fill="#1e88e5" fill-rule="evenodd" fill-opacity="1" stroke="#000000" stroke-opacity="1" stroke-width="3.2"/>
<circle clip-path="url(#clip051)" cx="639.755" cy="1101.23" r="14.4" fill="#1e88e5" fill-rule="evenodd" fill-opacity="1" stroke="#000000" stroke-opacity="1" stroke-width="3.2"/>
<circle clip-path="url(#clip051)" cx="957.802" cy="1295.15" r="14.4" fill="#1e88e5" fill-rule="evenodd" fill-opacity="1" stroke="#000000" stroke-opacity="1" stroke-width="3.2"/>
<circle clip-path="url(#clip051)" cx="957.802" cy="1324.71" r="14.4" fill="#1e88e5" fill-rule="evenodd" fill-opacity="1" stroke="#000000" stroke-opacity="1" stroke-width="3.2"/>
<circle clip-path="url(#clip051)" cx="957.802" cy="1305.12" r="14.4" fill="#1e88e5" fill-rule="evenodd" fill-opacity="1" stroke="#000000" stroke-opacity="1" stroke-width="3.2"/>
<circle clip-path="url(#clip051)" cx="957.802" cy="1195.06" r="14.4" fill="#1e88e5" fill-rule="evenodd" fill-opacity="1" stroke="#000000" stroke-opacity="1" stroke-width="3.2"/>
<circle clip-path="url(#clip051)" cx="957.802" cy="1236.38" r="14.4" fill="#1e88e5" fill-rule="evenodd" fill-opacity="1" stroke="#000000" stroke-opacity="1" stroke-width="3.2"/>
<circle clip-path="url(#clip051)" cx="957.802" cy="1274.91" r="14.4" fill="#1e88e5" fill-rule="evenodd" fill-opacity="1" stroke="#000000" stroke-opacity="1" stroke-width="3.2"/>
<circle clip-path="url(#clip051)" cx="957.802" cy="1149.66" r="14.4" fill="#1e88e5" fill-rule="evenodd" fill-opacity="1" stroke="#000000" stroke-opacity="1" stroke-width="3.2"/>
<circle clip-path="url(#clip051)" cx="957.802" cy="1290.7" r="14.4" fill="#1e88e5" fill-rule="evenodd" fill-opacity="1" stroke="#000000" stroke-opacity="1" stroke-width="3.2"/>
<circle clip-path="url(#clip051)" cx="957.802" cy="1300.74" r="14.4" fill="#1e88e5" fill-rule="evenodd" fill-opacity="1" stroke="#000000" stroke-opacity="1" stroke-width="3.2"/>
<circle clip-path="url(#clip051)" cx="957.802" cy="1253.71" r="14.4" fill="#1e88e5" fill-rule="evenodd" fill-opacity="1" stroke="#000000" stroke-opacity="1" stroke-width="3.2"/>
<circle clip-path="url(#clip051)" cx="1275.85" cy="1326.28" r="14.4" fill="#1e88e5" fill-rule="evenodd" fill-opacity="1" stroke="#000000" stroke-opacity="1" stroke-width="3.2"/>
<circle clip-path="url(#clip051)" cx="1275.85" cy="1350.97" r="14.4" fill="#1e88e5" fill-rule="evenodd" fill-opacity="1" stroke="#000000" stroke-opacity="1" stroke-width="3.2"/>
<circle clip-path="url(#clip051)" cx="1275.85" cy="1277.82" r="14.4" fill="#1e88e5" fill-rule="evenodd" fill-opacity="1" stroke="#000000" stroke-opacity="1" stroke-width="3.2"/>
<circle clip-path="url(#clip051)" cx="1275.85" cy="1336.89" r="14.4" fill="#1e88e5" fill-rule="evenodd" fill-opacity="1" stroke="#000000" stroke-opacity="1" stroke-width="3.2"/>
<circle clip-path="url(#clip051)" cx="1275.85" cy="1311.54" r="14.4" fill="#1e88e5" fill-rule="evenodd" fill-opacity="1" stroke="#000000" stroke-opacity="1" stroke-width="3.2"/>
<circle clip-path="url(#clip051)" cx="1275.85" cy="1285.84" r="14.4" fill="#1e88e5" fill-rule="evenodd" fill-opacity="1" stroke="#000000" stroke-opacity="1" stroke-width="3.2"/>
<circle clip-path="url(#clip051)" cx="1275.85" cy="1329.27" r="14.4" fill="#1e88e5" fill-rule="evenodd" fill-opacity="1" stroke="#000000" stroke-opacity="1" stroke-width="3.2"/>
<circle clip-path="url(#clip051)" cx="1275.85" cy="1301.55" r="14.4" fill="#1e88e5" fill-rule="evenodd" fill-opacity="1" stroke="#000000" stroke-opacity="1" stroke-width="3.2"/>
<circle clip-path="url(#clip051)" cx="1275.85" cy="1329.91" r="14.4" fill="#1e88e5" fill-rule="evenodd" fill-opacity="1" stroke="#000000" stroke-opacity="1" stroke-width="3.2"/>
<circle clip-path="url(#clip051)" cx="1275.85" cy="1330.98" r="14.4" fill="#1e88e5" fill-rule="evenodd" fill-opacity="1" stroke="#000000" stroke-opacity="1" stroke-width="3.2"/>
<circle clip-path="url(#clip051)" cx="1593.9" cy="1327.31" r="14.4" fill="#1e88e5" fill-rule="evenodd" fill-opacity="1" stroke="#000000" stroke-opacity="1" stroke-width="3.2"/>
<circle clip-path="url(#clip051)" cx="1593.9" cy="1359.38" r="14.4" fill="#1e88e5" fill-rule="evenodd" fill-opacity="1" stroke="#000000" stroke-opacity="1" stroke-width="3.2"/>
<circle clip-path="url(#clip051)" cx="1593.9" cy="1344.08" r="14.4" fill="#1e88e5" fill-rule="evenodd" fill-opacity="1" stroke="#000000" stroke-opacity="1" stroke-width="3.2"/>
<circle clip-path="url(#clip051)" cx="1593.9" cy="1329.33" r="14.4" fill="#1e88e5" fill-rule="evenodd" fill-opacity="1" stroke="#000000" stroke-opacity="1" stroke-width="3.2"/>
<circle clip-path="url(#clip051)" cx="1593.9" cy="1307.01" r="14.4" fill="#1e88e5" fill-rule="evenodd" fill-opacity="1" stroke="#000000" stroke-opacity="1" stroke-width="3.2"/>
<circle clip-path="url(#clip051)" cx="1593.9" cy="1364.96" r="14.4" fill="#1e88e5" fill-rule="evenodd" fill-opacity="1" stroke="#000000" stroke-opacity="1" stroke-width="3.2"/>
<circle clip-path="url(#clip051)" cx="1593.9" cy="1348.28" r="14.4" fill="#1e88e5" fill-rule="evenodd" fill-opacity="1" stroke="#000000" stroke-opacity="1" stroke-width="3.2"/>
<circle clip-path="url(#clip051)" cx="1593.9" cy="1346.62" r="14.4" fill="#1e88e5" fill-rule="evenodd" fill-opacity="1" stroke="#000000" stroke-opacity="1" stroke-width="3.2"/>
<circle clip-path="url(#clip051)" cx="1593.9" cy="1331.8" r="14.4" fill="#1e88e5" fill-rule="evenodd" fill-opacity="1" stroke="#000000" stroke-opacity="1" stroke-width="3.2"/>
<circle clip-path="url(#clip051)" cx="1593.9" cy="1376.09" r="14.4" fill="#1e88e5" fill-rule="evenodd" fill-opacity="1" stroke="#000000" stroke-opacity="1" stroke-width="3.2"/>
<circle clip-path="url(#clip051)" cx="1911.94" cy="1351.06" r="14.4" fill="#1e88e5" fill-rule="evenodd" fill-opacity="1" stroke="#000000" stroke-opacity="1" stroke-width="3.2"/>
<circle clip-path="url(#clip051)" cx="1911.94" cy="1362.3" r="14.4" fill="#1e88e5" fill-rule="evenodd" fill-opacity="1" stroke="#000000" stroke-opacity="1" stroke-width="3.2"/>
<circle clip-path="url(#clip051)" cx="1911.94" cy="1365.37" r="14.4" fill="#1e88e5" fill-rule="evenodd" fill-opacity="1" stroke="#000000" stroke-opacity="1" stroke-width="3.2"/>
<circle clip-path="url(#clip051)" cx="1911.94" cy="1373.74" r="14.4" fill="#1e88e5" fill-rule="evenodd" fill-opacity="1" stroke="#000000" stroke-opacity="1" stroke-width="3.2"/>
<circle clip-path="url(#clip051)" cx="1911.94" cy="1366.48" r="14.4" fill="#1e88e5" fill-rule="evenodd" fill-opacity="1" stroke="#000000" stroke-opacity="1" stroke-width="3.2"/>
<circle clip-path="url(#clip051)" cx="1911.94" cy="1364.24" r="14.4" fill="#1e88e5" fill-rule="evenodd" fill-opacity="1" stroke="#000000" stroke-opacity="1" stroke-width="3.2"/>
<circle clip-path="url(#clip051)" cx="1911.94" cy="1383.35" r="14.4" fill="#1e88e5" fill-rule="evenodd" fill-opacity="1" stroke="#000000" stroke-opacity="1" stroke-width="3.2"/>
<circle clip-path="url(#clip051)" cx="1911.94" cy="1365.25" r="14.4" fill="#1e88e5" fill-rule="evenodd" fill-opacity="1" stroke="#000000" stroke-opacity="1" stroke-width="3.2"/>
<circle clip-path="url(#clip051)" cx="1911.94" cy="1384.24" r="14.4" fill="#1e88e5" fill-rule="evenodd" fill-opacity="1" stroke="#000000" stroke-opacity="1" stroke-width="3.2"/>
<circle clip-path="url(#clip051)" cx="1911.94" cy="1348.95" r="14.4" fill="#1e88e5" fill-rule="evenodd" fill-opacity="1" stroke="#000000" stroke-opacity="1" stroke-width="3.2"/>
<circle clip-path="url(#clip051)" cx="2229.99" cy="1382.29" r="14.4" fill="#1e88e5" fill-rule="evenodd" fill-opacity="1" stroke="#000000" stroke-opacity="1" stroke-width="3.2"/>
<circle clip-path="url(#clip051)" cx="2229.99" cy="1380.82" r="14.4" fill="#1e88e5" fill-rule="evenodd" fill-opacity="1" stroke="#000000" stroke-opacity="1" stroke-width="3.2"/>
<circle clip-path="url(#clip051)" cx="2229.99" cy="1367.57" r="14.4" fill="#1e88e5" fill-rule="evenodd" fill-opacity="1" stroke="#000000" stroke-opacity="1" stroke-width="3.2"/>
<circle clip-path="url(#clip051)" cx="2229.99" cy="1380.65" r="14.4" fill="#1e88e5" fill-rule="evenodd" fill-opacity="1" stroke="#000000" stroke-opacity="1" stroke-width="3.2"/>
<circle clip-path="url(#clip051)" cx="2229.99" cy="1377.99" r="14.4" fill="#1e88e5" fill-rule="evenodd" fill-opacity="1" stroke="#000000" stroke-opacity="1" stroke-width="3.2"/>
<circle clip-path="url(#clip051)" cx="2229.99" cy="1374.76" r="14.4" fill="#1e88e5" fill-rule="evenodd" fill-opacity="1" stroke="#000000" stroke-opacity="1" stroke-width="3.2"/>
<circle clip-path="url(#clip051)" cx="2229.99" cy="1375.15" r="14.4" fill="#1e88e5" fill-rule="evenodd" fill-opacity="1" stroke="#000000" stroke-opacity="1" stroke-width="3.2"/>
<circle clip-path="url(#clip051)" cx="2229.99" cy="1378.52" r="14.4" fill="#1e88e5" fill-rule="evenodd" fill-opacity="1" stroke="#000000" stroke-opacity="1" stroke-width="3.2"/>
<circle clip-path="url(#clip051)" cx="2229.99" cy="1373.07" r="14.4" fill="#1e88e5" fill-rule="evenodd" fill-opacity="1" stroke="#000000" stroke-opacity="1" stroke-width="3.2"/>
<circle clip-path="url(#clip051)" cx="2229.99" cy="1375.95" r="14.4" fill="#1e88e5" fill-rule="evenodd" fill-opacity="1" stroke="#000000" stroke-opacity="1" stroke-width="3.2"/>
<circle clip-path="url(#clip051)" cx="385.317" cy="814.87" r="14.4" fill="#d81b60" fill-rule="evenodd" fill-opacity="1" stroke="#000000" stroke-opacity="1" stroke-width="3.2"/>
<circle clip-path="url(#clip051)" cx="703.364" cy="1144.47" r="14.4" fill="#d81b60" fill-rule="evenodd" fill-opacity="1" stroke="#000000" stroke-opacity="1" stroke-width="3.2"/>
<circle clip-path="url(#clip051)" cx="1021.41" cy="1262.61" r="14.4" fill="#d81b60" fill-rule="evenodd" fill-opacity="1" stroke="#000000" stroke-opacity="1" stroke-width="3.2"/>
<circle clip-path="url(#clip051)" cx="1339.46" cy="1318.1" r="14.4" fill="#d81b60" fill-rule="evenodd" fill-opacity="1" stroke="#000000" stroke-opacity="1" stroke-width="3.2"/>
<circle clip-path="url(#clip051)" cx="1657.51" cy="1343.48" r="14.4" fill="#d81b60" fill-rule="evenodd" fill-opacity="1" stroke="#000000" stroke-opacity="1" stroke-width="3.2"/>
<circle clip-path="url(#clip051)" cx="1975.55" cy="1366.5" r="14.4" fill="#d81b60" fill-rule="evenodd" fill-opacity="1" stroke="#000000" stroke-opacity="1" stroke-width="3.2"/>
<circle clip-path="url(#clip051)" cx="2293.6" cy="1376.68" r="14.4" fill="#d81b60" fill-rule="evenodd" fill-opacity="1" stroke="#000000" stroke-opacity="1" stroke-width="3.2"/>
<path clip-path="url(#clip050)" d="M1953.58 196.789 L2283.08 196.789 L2283.08 93.1086 L1953.58 93.1086  Z" fill="#ffffff" fill-rule="evenodd" fill-opacity="1"/>
<polyline clip-path="url(#clip050)" style="stroke:#000000; stroke-linecap:round; stroke-linejoin:round; stroke-width:4; stroke-opacity:1; fill:none" points="1953.58,196.789 2283.08,196.789 2283.08,93.1086 1953.58,93.1086 1953.58,196.789 "/>
<circle clip-path="url(#clip050)" cx="2046.47" cy="144.949" r="20.48" fill="#d81b60" fill-rule="evenodd" fill-opacity="1" stroke="#000000" stroke-opacity="1" stroke-width="4.55111"/>
<path clip-path="url(#clip050)" d="M2139.37 127.669 L2146.34 127.669 L2155.16 151.187 L2164.03 127.669 L2170.99 127.669 L2170.99 162.229 L2166.43 162.229 L2166.43 131.882 L2157.52 155.585 L2152.82 155.585 L2143.91 131.882 L2143.91 162.229 L2139.37 162.229 L2139.37 127.669 Z" fill="#000000" fill-rule="nonzero" fill-opacity="1" /><path clip-path="url(#clip050)" d="M2202.27 148.201 L2202.27 150.284 L2182.68 150.284 Q2182.96 154.682 2185.32 156.997 Q2187.71 159.289 2191.94 159.289 Q2194.4 159.289 2196.69 158.687 Q2199 158.085 2201.27 156.881 L2201.27 160.909 Q2198.98 161.881 2196.57 162.391 Q2194.16 162.9 2191.69 162.9 Q2185.48 162.9 2181.85 159.289 Q2178.24 155.678 2178.24 149.52 Q2178.24 143.155 2181.66 139.428 Q2185.11 135.678 2190.95 135.678 Q2196.18 135.678 2199.21 139.057 Q2202.27 142.414 2202.27 148.201 M2198.01 146.951 Q2197.96 143.456 2196.04 141.372 Q2194.14 139.289 2190.99 139.289 Q2187.43 139.289 2185.27 141.303 Q2183.15 143.317 2182.82 146.974 L2198.01 146.951 Z" fill="#000000" fill-rule="nonzero" fill-opacity="1" /><path clip-path="url(#clip050)" d="M2221.04 149.196 Q2215.88 149.196 2213.89 150.377 Q2211.9 151.557 2211.9 154.405 Q2211.9 156.673 2213.38 158.016 Q2214.88 159.335 2217.45 159.335 Q2220.99 159.335 2223.12 156.835 Q2225.27 154.312 2225.27 150.145 L2225.27 149.196 L2221.04 149.196 M2229.53 147.437 L2229.53 162.229 L2225.27 162.229 L2225.27 158.293 Q2223.82 160.655 2221.64 161.789 Q2219.46 162.9 2216.32 162.9 Q2212.34 162.9 2209.97 160.678 Q2207.64 158.432 2207.64 154.682 Q2207.64 150.307 2210.55 148.085 Q2213.49 145.863 2219.3 145.863 L2225.27 145.863 L2225.27 145.446 Q2225.27 142.507 2223.33 140.909 Q2221.41 139.289 2217.91 139.289 Q2215.69 139.289 2213.59 139.821 Q2211.48 140.354 2209.53 141.419 L2209.53 137.483 Q2211.87 136.581 2214.07 136.141 Q2216.27 135.678 2218.35 135.678 Q2223.98 135.678 2226.76 138.594 Q2229.53 141.511 2229.53 147.437 Z" fill="#000000" fill-rule="nonzero" fill-opacity="1" /><path clip-path="url(#clip050)" d="M2259.86 146.581 L2259.86 162.229 L2255.6 162.229 L2255.6 146.719 Q2255.6 143.039 2254.16 141.21 Q2252.73 139.382 2249.86 139.382 Q2246.41 139.382 2244.42 141.581 Q2242.43 143.78 2242.43 147.576 L2242.43 162.229 L2238.15 162.229 L2238.15 136.303 L2242.43 136.303 L2242.43 140.331 Q2243.96 137.993 2246.02 136.835 Q2248.1 135.678 2250.81 135.678 Q2255.27 135.678 2257.57 138.456 Q2259.86 141.21 2259.86 146.581 Z" fill="#000000" fill-rule="nonzero" fill-opacity="1" /></svg>
